<?xml version="1.0" encoding="UTF-8" standalone="no"?>
<!-- Created with Inkscape (http://www.inkscape.org/) -->
<svg
   xmlns:svg="http://www.w3.org/2000/svg"
   xmlns="http://www.w3.org/2000/svg"
   version="1.0"
   width="240"
   height="75"
   id="svg2">
  <defs
     id="defs4" />
  <g
     transform="translate(1e-6,-11.928571)"
     id="layer1">
    <g
       transform="matrix(1.2502853,0,0,-1.2502853,-251.63142,578.22917)"
       id="g2392">
      <g
         transform="scale(0.12,0.12)"
         id="g2394">
        <path
           d="M 1677.16,2704.72 L 3283.46,2704.72 L 3283.46,4311.02 L 1677.16,4311.02 L 1677.16,2704.72 z"
           id="path2396"
           style="fill:#ffffff;fill-opacity:1;fill-rule:evenodd;stroke:none" />
        <path
           d="M 1768.28,3718.54 L 3195.71,3718.54 C 3238.4,3718.54 3273.33,3689.97 3273.33,3655.04 L 3273.33,3361.9 C 3273.33,3326.98 3238.4,3298.4 3195.71,3298.4 L 1768.28,3298.4 C 1725.58,3298.4 1690.65,3326.98 1690.65,3361.9 L 1690.65,3655.04 C 1690.65,3689.97 1725.58,3718.54 1768.28,3718.54"
           id="path2398"
           style="fill:#ffda41;fill-opacity:1;fill-rule:evenodd;stroke:none" />
        <g
           transform="scale(0.998227,1.00177)"
           id="g2400">
          <path
             d="M 1776.77,3688.71 L 3196.23,3688.71 C 3229.22,3688.71 3256.22,3668.46 3256.22,3643.71 L 3256.22,3359.05 C 3256.22,3334.3 3229.22,3314.05 3196.23,3314.05 L 1776.77,3314.05 C 1743.78,3314.05 1716.78,3334.3 1716.78,3359.05 L 1716.78,3643.71 C 1716.78,3668.46 1743.78,3688.71 1776.77,3688.71 z"
             id="path2402"
             style="fill:none;stroke:#ffffff;stroke-width:8.2475996;stroke-linecap:butt;stroke-linejoin:miter;stroke-miterlimit:2.61310005;stroke-dasharray:none;stroke-opacity:1" />
        </g>
        <path
           d="M 2006.21,3641.84 C 2013.37,3641.84 2019.5,3636.04 2019.5,3628.54 L 2019.5,3601.45 C 2019.5,3593.95 2013.37,3588.15 2006.21,3588.15 L 1919.13,3588.15 L 1919.13,3391.48 C 1919.13,3382.29 1911.46,3374.61 1902.42,3374.61 L 1855.05,3374.61 C 1845.84,3374.61 1838.35,3382.29 1838.35,3391.48 L 1838.35,3588.15 L 1751.26,3588.15 C 1743.93,3588.15 1737.96,3593.95 1737.96,3601.45 L 1737.96,3628.54 C 1737.8,3636.04 1743.93,3641.84 1751.26,3641.84 L 2006.21,3641.84 z M 2223.8,3641.84 C 2214.6,3641.84 2207.11,3634.34 2207.11,3624.96 L 2207.11,3534.98 L 2113.89,3534.98 L 2113.89,3624.96 C 2113.89,3634.34 2106.21,3641.84 2097.18,3641.84 L 2049.8,3641.84 C 2040.6,3641.84 2033.1,3634.34 2033.1,3624.96 L 2033.1,3391.49 C 2033.1,3382.28 2040.6,3374.61 2049.8,3374.61 L 2097.18,3374.61 C 2106.21,3374.61 2113.89,3382.28 2113.89,3391.49 L 2113.89,3481.3 L 2207.11,3481.3 L 2207.11,3391.48 C 2207.11,3382.28 2214.6,3374.61 2223.8,3374.61 L 2271.18,3374.61 C 2280.21,3374.61 2287.88,3382.28 2287.88,3391.48 L 2287.88,3624.96 C 2287.88,3634.34 2280.21,3641.84 2271.18,3641.84 L 2223.8,3641.84 z M 3042.99,3471.33 L 3042.99,3391.6 C 3042.99,3382.39 3050.49,3374.72 3059.69,3374.72 L 3107.07,3374.72 C 3116.1,3374.72 3123.94,3382.39 3123.94,3391.6 L 3123.94,3474.35 L 3216.13,3626.94 C 3221.14,3635.22 3216.98,3642.16 3206.05,3641.97 L 3166.97,3641.97 C 3156.15,3641.97 3143.72,3635.22 3138.71,3626.94 L 3082.27,3533.51 L 3026.63,3626.94 C 3021.69,3635.23 3009.43,3641.97 2998.77,3641.97 L 2960.25,3641.97 C 2949.48,3642.16 2945.37,3635.23 2950.31,3626.94 L 3042.99,3471.33 z M 2305.29,3499.45 C 2302.05,3597.11 2372.78,3641.76 2453.9,3641.76 C 2524.63,3641.76 2605.41,3605.63 2602.17,3505.25 C 2602.17,3455.14 2568.43,3377.43 2453.9,3374.71 C 2423.4,3374.71 2312.11,3388 2305.29,3499.45 z M 2386.82,3505.46 C 2389.79,3456.8 2411.41,3428.1 2455.11,3428.1 C 2498.34,3428.1 2523.09,3462.23 2523.09,3505.46 C 2523.09,3562.68 2498.34,3585.43 2461.06,3588.41 C 2411.41,3591.21 2383.84,3553.93 2386.82,3505.46 z M 2817.63,3390.45 C 2817.08,3381.71 2809.71,3374.61 2801.09,3374.61 L 2754.09,3374.61 C 2747.73,3374.61 2740.36,3379.22 2738.43,3385.51 L 2683.59,3564.47 L 2683.59,3391.48 C 2683.59,3382.29 2677.41,3374.61 2670.12,3374.61 L 2631.91,3374.61 C 2624.48,3374.61 2618.44,3382.29 2618.44,3391.48 L 2618.44,3624.96 C 2618.44,3634.34 2624.48,3641.84 2631.91,3641.84 L 2653.48,3641.84 C 2653.63,3641.94 2653.8,3642.02 2654,3642.09 L 2701.93,3642.11 C 2710.99,3642.17 2718.38,3637.02 2720.49,3630.14 L 2777.27,3444.84 L 2834.05,3630.14 C 2836.16,3637.02 2843.55,3642.17 2852.61,3642.11 L 2922.63,3641.84 C 2930.05,3641.84 2936.1,3634.34 2936.1,3624.96 L 2936.1,3391.48 C 2936.1,3382.28 2930.05,3374.61 2922.63,3374.61 L 2884.41,3374.61 C 2877.13,3374.61 2870.95,3382.28 2870.95,3391.48 L 2870.95,3564.46 L 2817.63,3390.45"
           id="path2404"
           style="fill:#000000;fill-opacity:1;fill-rule:evenodd;stroke:none" />
        <path
           d="M 3175.61,3448.12 C 3182.34,3448.12 3188.79,3446.45 3194.97,3443.07 C 3201.16,3439.71 3206.02,3434.89 3209.55,3428.61 C 3213.08,3422.31 3214.85,3415.73 3214.85,3408.88 C 3214.85,3402.04 3213.12,3395.52 3209.66,3389.33 C 3206.18,3383.14 3201.35,3378.29 3195.14,3374.83 C 3188.95,3371.37 3182.43,3369.64 3175.61,3369.64 C 3168.77,3369.64 3162.27,3371.37 3156.05,3374.83 C 3149.87,3378.29 3145.02,3383.14 3141.56,3389.33 C 3138.1,3395.52 3136.37,3402.04 3136.37,3408.88 C 3136.37,3415.73 3138.13,3422.31 3141.66,3428.61 C 3145.2,3434.89 3150.06,3439.71 3156.23,3443.07 C 3162.42,3446.45 3168.88,3448.12 3175.61,3448.12 z M 3175.66,3440.43 C 3170.26,3440.43 3165.08,3439.08 3160.13,3436.39 C 3155.18,3433.7 3151.28,3429.81 3148.43,3424.76 C 3145.57,3419.71 3144.15,3414.41 3144.15,3408.88 C 3144.15,3403.37 3145.55,3398.13 3148.33,3393.14 C 3151.11,3388.16 3154.99,3384.26 3159.98,3381.46 C 3164.96,3378.66 3170.19,3377.26 3175.66,3377.26 C 3181.15,3377.26 3186.38,3378.66 3191.36,3381.46 C 3196.33,3384.26 3200.21,3388.16 3203.01,3393.14 C 3205.81,3398.13 3207.21,3403.37 3207.21,3408.88 C 3207.21,3414.41 3205.79,3419.71 3202.94,3424.76 C 3200.09,3429.81 3196.17,3433.7 3191.21,3436.39 C 3186.24,3439.08 3181.05,3440.43 3175.66,3440.43 z M 3157.88,3387.88 L 3157.88,3429.52 L 3166.34,3429.52 C 3174.26,3429.52 3178.7,3429.48 3179.65,3429.41 C 3182.45,3429.18 3184.63,3428.63 3186.19,3427.75 C 3187.75,3426.88 3189.04,3425.55 3190.07,3423.76 C 3191.12,3421.96 3191.64,3419.97 3191.64,3417.79 C 3191.64,3414.79 3190.66,3412.22 3188.69,3410.09 C 3186.73,3407.94 3183.97,3406.63 3180.42,3406.1 C 3181.68,3405.63 3182.66,3405.1 3183.34,3404.54 C 3184.02,3403.98 3184.96,3402.92 3186.15,3401.34 C 3186.47,3400.94 3187.48,3399.25 3189.23,3396.27 L 3194.14,3387.88 L 3183.71,3387.88 L 3180.21,3394.63 C 3177.86,3399.18 3175.91,3402.04 3174.37,3403.21 C 3172.85,3404.39 3170.89,3404.98 3168.53,3404.98 L 3166.34,3404.98 L 3166.34,3387.88 L 3157.88,3387.88 z M 3166.34,3411.54 L 3169.77,3411.54 C 3174.64,3411.54 3177.67,3411.73 3178.86,3412.1 C 3180.03,3412.48 3180.96,3413.13 3181.64,3414.07 C 3182.34,3415.02 3182.67,3416.09 3182.67,3417.27 C 3182.67,3418.45 3182.34,3419.48 3181.68,3420.37 C 3181.01,3421.28 3180.07,3421.93 3178.82,3422.33 C 3177.6,3422.71 3174.57,3422.91 3169.77,3422.91 L 3166.34,3422.91 L 3166.34,3411.54"
           id="path2406"
           style="fill:#231f20;fill-opacity:1;fill-rule:evenodd;stroke:none" />
      </g>
    </g>
  </g>
</svg>
